<svg width="28" height="28" viewBox="0 0 22 22" fill="black" xmlns="http://www.w3.org/2000/svg">
<path d="M17.4231 6.6H3.57692C3.26154 6.6 3 6.23733 3 5.8C3 5.36267 3.26154 5 3.57692 5H10.5H17.4231C17.7385 5 18 5.36267 18 5.8C18 6.23733 17.7385 6.6 17.4231 6.6Z" />
<path d="M17.4231 11.6H3.57692C3.26154 11.6 3 11.2373 3 10.8C3 10.3627 3.26154 10 3.57692 10H10.5192H17.4231C17.7385 10 18 10.3627 18 10.8C18 11.2373 17.7385 11.6 17.4231 11.6Z" />
<path d="M17.4231 16.6H3.57692C3.26153 16.6 3 16.2373 3 15.8C3 15.3627 3.26153 15 3.57692 15H17.4231C17.7385 15 18 15.3627 18 15.8C18 16.2373 17.7385 16.6 17.4231 16.6Z" />
</svg>


